PathFileType	4	(X/Y/Z)	TRAIL_071_Static_01_markers.trc
DataRate	CameraRate	NumFrames	NumMarkers	Units	OrigDataRate	OrigDataStartFrame	OrigNumFrames
200	200	4	48	mm	200	343	391
Frame#	Time	RSH			LSH			C7			LELB			LWR			RELB			RWR			RASI			LASI			SACR			P1			P2			LTHLP			LTHLD			LTHAP			LTHAD			LLEPI			LPAT			LMEPI			LTIAP			LTIAD			LTILAT			LLMAL			LMMAL			LHEEL			LMFS			LMFL			LP5MT			LP1MT			LTOE			RTHLP			RTHLD			RTHAP			RTHAD			RLEPI			RPAT			RMEPI			RTIAP			RTIAD			RTILAT			RLMAL			RMMAL			RHEEL			RMFS			RMFL			RP5MT			RP1MT			RTOE			
		X1	Y1	Z1	X2	Y2	Z2	X3	Y3	Z3	X4	Y4	Z4	X5	Y5	Z5	X6	Y6	Z6	X7	Y7	Z7	X8	Y8	Z8	X9	Y9	Z9	X10	Y10	Z10	X11	Y11	Z11	X12	Y12	Z12	X13	Y13	Z13	X14	Y14	Z14	X15	Y15	Z15	X16	Y16	Z16	X17	Y17	Z17	X18	Y18	Z18	X19	Y19	Z19	X20	Y20	Z20	X21	Y21	Z21	X22	Y22	Z22	X23	Y23	Z23	X24	Y24	Z24	X25	Y25	Z25	X26	Y26	Z26	X27	Y27	Z27	X28	Y28	Z28	X29	Y29	Z29	X30	Y30	Z30	X31	Y31	Z31	X32	Y32	Z32	X33	Y33	Z33	X34	Y34	Z34	X35	Y35	Z35	X36	Y36	Z36	X37	Y37	Z37	X38	Y38	Z38	X39	Y39	Z39	X40	Y40	Z40	X41	Y41	Z41	X42	Y42	Z42	X43	Y43	Z43	X44	Y44	Z44	X45	Y45	Z45	X46	Y46	Z46	X47	Y47	Z47	X48	Y48	Z48
343	        1.7100000381	      121.8280586399	     1520.6533670425	      -55.8987259865	     -148.4276113115	     1528.3006429672	      -45.7654595375	      -14.7513655029	     1517.1290636063	        1.8426179886	     -427.7843591772	     1400.8965492249	        0.2698898315	     -684.5760402284	     1382.1531534195	      -79.4057846069	      406.1541798510	     1401.2055397034	      -34.6576571465	      655.4912867941	     1427.8962612152	     -158.3911776543	      134.8307522931	      999.9759197235	     -153.4013748169	     -131.2721279464	     1013.6802196503	     -181.9180846214	       -7.8834203086	     1016.4531469345	       14.5483613014	      -51.8019293449	     1018.5037851334	       12.3333334923	       32.9699310460	     1017.8052186966	       15.0262713432	     -199.5722857318	      726.2712121010	     -107.9382896423	     -189.8419466816	      615.6179308891	     -105.3897738457	     -121.0210007630	      710.2649211884	     -207.2014212608	     -123.0177265606	      609.0584993362	     -182.1969151497	     -183.7873366676	      520.4186439514	     -103.1432747841	     -137.8488895498	      505.3405761719	     -157.7759385109	      -75.0342813335	      487.4673485756	     -104.9894690514	     -154.8467633329	      351.3359725475	     -128.4337639809	     -167.9931637846	      247.0984607935	     -117.3433661461	     -220.2678677641	      309.0848624706	      -64.7685527802	     -210.8477410875	      109.7662970424	      -62.0844960213	     -131.3569006525	      106.4906641841	      -87.5732898712	     -171.3962760768	       60.5089887977	       -1.2423396111	     -173.2120570741	       87.9194363952	     -174.7738122940	     -261.3518592916	       42.6039621234	     -155.5137634277	     -262.4075767599	       38.4903140366	     -220.0377583504	     -157.7261296115	       45.2201142907	     -218.5156941414	     -186.4207592807	       53.0110448599	     -257.6439976692	      188.4164455332	      729.5122146606	      -86.3974094391	      179.0522280135	      633.1992149353	      -83.5992693901	      120.4414459862	      720.7946181297	     -193.4821009636	      116.7766395010	      627.9292106628	     -175.9680509567	      172.1468063988	      515.3827071190	      -84.4541192055	      128.6365482010	      495.7468509674	     -144.6195840836	       56.1511310734	      487.6803457737	      -95.9247946739	      150.8920135893	      360.2160513401	     -112.4293804169	      157.2944912114	      251.5118122101	      -96.7449545860	      206.1002644696	      326.0954916477	      -41.9227480888	      195.5041828551	      106.0858741403	      -25.3005623817	      119.4656210937	      118.0070787668	      -57.7971935272	      152.0754191079	       61.3079927862	       28.2734036446	      159.9996033110	       86.4219367504	     -147.6839780807	      243.6451259055	       39.3316149712	     -128.0515789986	      247.2405674853	       37.6587510109	     -184.4987869263	      142.9834607043	       41.7203828692	     -200.3681659698	      176.6729894080	       53.5653084517	     -244.5220947266
344	        1.7150000334	      121.8356880345	     1520.6564664841	      -55.9328198433	     -148.4264043174	     1528.2920598984	      -45.7793474197	      -14.7778644241	     1517.1363353729	        1.7903447151	     -427.7833458982	     1400.8911848068	        0.2264976501	     -684.5890936456	     1382.2221755981	      -79.4271230698	      406.1236026682	     1401.1654853821	      -34.6995592117	      655.5224600233	     1427.8632402420	     -158.3797335625	      134.8213347592	      999.9590516090	     -153.4711122513	     -131.3127783142	     1013.6723518372	     -181.9511651993	       -7.8948113151	     1016.4648294449	       14.5221352577	      -51.8262331389	     1018.5145139694	       12.2628808022	       32.9867768087	     1017.8104639053	       14.9455666542	     -199.4822529159	      726.2278795242	     -107.8751683235	     -189.8256299100	      615.6187057495	     -105.4874062538	     -121.0024115644	      710.2754116058	     -207.2853446007	     -123.0129358373	      609.0677976608	     -182.2739839554	     -183.7312784992	      520.4159617424	     -103.2377481461	     -137.8126946292	      505.3522586823	     -157.8523516655	      -75.0000682674	      487.4448478222	     -105.0284504890	     -154.8687127433	      351.2542545795	     -128.4352540970	     -167.9856088958	      247.0921427011	     -117.3869371414	     -220.2803251348	      309.0958595276	      -64.8004412651	     -210.8536717496	      109.7760275006	      -62.0917677879	     -131.3589421115	      106.4897179604	      -87.5774025917	     -171.6917810045	       60.5878308415	       -1.3164281845	     -173.2155439458	       87.9052728415	     -174.7487187386	     -261.3191363416	       42.6053032279	     -155.5058956146	     -262.3919305406	       38.4845100343	     -220.0499773026	     -157.7087995611	       45.2264398336	     -218.5061573982	     -186.4118483863	       53.0223883688	     -257.6794028282	      188.3901300826	      729.4956445694	      -86.3841772079	      179.0208610691	      633.2025527954	      -83.5855007172	      120.4675751724	      720.7874059677	     -193.5079693794	      116.7530956664	      627.9090642929	     -175.9349107742	      172.1737029948	      515.3970718384	      -84.4600200653	      128.6524179377	      495.7581460476	     -144.6144580841	       56.1480241813	      487.6837730408	      -95.9287285805	      150.8907320895	      360.2409660816	     -112.4643087387	      157.3080214657	      251.4918148518	      -96.6852903366	      206.0879114069	      326.1021673679	      -41.9241189957	      195.5377849736	      106.0839891434	      -25.3466963768	      119.4534170427	      117.9882958531	      -57.7986240387	      152.4120214381	       61.2759515643	       28.2872319221	      159.9305662312	       86.3963887095	     -147.6712226868	      243.6656001009	       39.3656045198	     -128.0336976051	      247.2459170021	       37.6730374992	     -184.4919323921	      143.0140676894	       41.7093746364	     -200.4097104073	      176.6650023856	       53.5539463162	     -244.5265054703
345	        1.7200000286	      121.8384745516	     1520.6770896912	      -55.9620261192	     -148.4234091840	     1528.3117294312	      -45.8226799965	      -14.7766965456	     1517.1157121658	        1.7907619476	     -427.7606663309	     1400.9157419205	        0.1744031906	     -684.5580396257	     1382.1494579315	      -79.4381499290	      406.1745646395	     1401.2151956558	      -34.6713066101	      655.5287185111	     1427.8175830841	     -158.3609580994	      134.7932460703	      999.9625682831	     -153.4731984138	     -131.3391831718	     1013.6806964874	     -181.9842457771	       -7.9291799120	     1016.4738893509	       14.4879817963	      -51.8563372098	     1018.5133218765	       12.1933817863	       32.9361761906	     1017.8235769272	       14.8992538452	     -199.4887796245	      726.2340784073	     -108.0527305603	     -189.8322013221	      615.6376004219	     -105.5784821510	     -120.9832784734	      710.2754712105	     -207.3559165001	     -122.9832750760	      609.0738177299	     -182.3672056198	     -183.7505009971	      520.4177498817	     -103.3023595810	     -137.7894190155	      505.3468942642	     -157.9534411430	      -74.9964845381	      487.4520599842	     -105.0926446915	     -154.8603084884	      351.2443900108	     -128.5514831543	     -167.9635551773	      247.0785826445	     -117.4358725548	     -220.2538457714	      309.0942502022	      -64.8559927940	     -210.8447161518	      109.7463965416	      -62.1202588081	     -131.3364264570	      106.4827293158	      -87.5899195671	     -171.4246031843	       60.5167746544	       -1.2608170509	     -173.1918212972	       87.9103466868	     -174.7537851334	     -261.2758931718	       42.6250100136	     -155.4235816002	     -262.3825130067	       38.4792052209	     -220.0357913971	     -157.7141937814	       45.2208928764	     -218.5143232346	     -186.4173022113	       52.9970191419	     -257.6587796211	      188.3731725611	      729.5055389404	      -86.3701701164	      178.9704951443	      633.1947445869	      -83.5968255997	      120.4560565748	      720.8002805710	     -193.5558319092	      116.7505699195	      627.8861761093	     -175.9406924248	      172.1304002203	      515.3894424438	      -84.4342708588	      128.6235841908	      495.7412481308	     -144.6022987366	       56.1261269249	      487.7019226551	      -95.9650874138	      150.8605125346	      360.2028787136	     -112.4389767647	      157.2937908568	      251.4770328999	      -96.6867804527	      206.0837092795	      326.1005878448	      -41.9415235519	      195.5401095547	      106.0852259398	      -25.3339409828	      119.5030528106	      118.0030256510	      -57.8280091286	      152.5677683749	       61.4839270711	       28.1999707222	      159.9045488038	       86.4207893610	     -147.6891040802	      243.6582091250	       39.3548719585	     -128.0312538147	      247.2475412287	       37.6745164394	     -184.4970583916	      142.9810914196	       41.6703149676	     -200.4006505013	      176.6826304593	       53.5651519895	     -244.5414662361
346	        1.7250000238	      121.8530031838	     1520.6720829010	      -55.9710860252	     -148.4016683899	     1528.3182859421	      -45.8437204361	      -14.7523666747	     1517.0966386795	        1.7765760422	     -427.7506527505	     1400.9398221970	        0.1551508904	     -684.5629868112	     1382.1631669998	      -79.4595479965	      406.1212184824	     1401.1714458466	      -34.8637104034	      655.5398645796	     1427.7864694595	     -158.3425402641	      134.7760948338	      999.9352097511	     -153.5429954529	     -131.3407030902	     1013.7040615082	     -182.0573210716	       -7.9502929948	     1016.4815187454	       14.4088268280	      -51.8863705001	     1018.5458660126	       12.1650099754	       32.9345966675	     1017.8433656693	       14.8320794106	     -199.5364931427	      726.1999845505	     -108.1486940384	     -189.8142603241	      615.5948638916	     -105.6521534920	     -121.0031417213	      710.2676033974	     -207.4036002159	     -123.0079066954	      609.0860366821	     -182.4370622635	     -183.7428865038	      520.4033851624	     -103.3875346184	     -137.7839353881	      505.3558349609	     -158.0107808113	      -74.9925208293	      487.4573945999	     -105.1815152168	     -154.8065600000	      351.2357175350	     -128.5505294800	     -167.9617223344	      247.0658123493	     -117.4494028091	     -220.2521470390	      309.1068565845	      -64.9190545082	     -210.8345088564	      109.7645089030	      -62.1271133423	     -131.3540396295	      106.4731925726	      -87.5884294510	     -171.4067962967	       60.5689585209	       -1.2517571449	     -173.1897351347	       87.9110321403	     -174.7686266899	     -261.2890359960	       42.6456555724	     -155.5255055428	     -262.3988744817	       38.4707227349	     -220.0225591660	     -157.6877442203	       45.2539771795	     -218.5056209564	     -186.4097324215	       53.0144087970	     -257.6786875725	      188.3448752560	      729.5154929161	      -86.3896012306	      178.9767983355	      633.2131624222	      -83.6183428764	      120.4443442621	      720.7754850388	     -193.5659646988	      116.7303713955	      627.8691291809	     -175.9326457977	      172.1266004242	      515.4066681862	      -84.4404101372	      128.6234202780	      495.7445263863	     -144.6061730385	       56.1297590830	      487.6945316792	      -95.9563255310	      150.8566978373	      360.2046966553	     -112.4231815338	      157.3008093037	      251.5119910240	      -96.6481566429	      206.0582282938	      326.1156976223	      -41.9330596924	      195.5322417416	      106.0968786478	      -25.3449678421	      119.4538566269	      117.9672852159	      -57.7962398529	      152.0432176985	       61.2941272557	       28.2614231110	      159.8958465256	       86.3585323095	     -147.6641297340	      243.6588200726	       39.3424294889	     -128.0504465103	      247.2548875012	       37.6829206944	     -184.4833493233	      142.7254321970	       42.0281812549	     -200.3717422485	      176.7069789566	       53.5552017391	     -244.5316910744
